<svg xmlns="http://www.w3.org/2000/svg" viewBox="0 0 54 54"><linearGradient id="a" x1="-12.852" x2="29.021" y1="18.979" y2="66.727" gradientUnits="userSpaceOnUse"><stop offset="0" stop-color="#d810fb"/><stop offset="1" stop-color="#3953ed"/></linearGradient><path fill="url(#a)" d="M15.992 37.427H3a.5.5 0 0 0-.5.5v13.072a.5.5 0 0 0 .5.5h12.992a.5.5 0 0 0 .5-.5V37.927c0-.277-.223-.5-.5-.5zm-.5 13.072H3.5V38.427h11.992v12.072z"/><linearGradient id="b" x1="-.106" x2="41.768" y1="7.8" y2="55.548" gradientUnits="userSpaceOnUse"><stop offset="0" stop-color="#d810fb"/><stop offset="1" stop-color="#3953ed"/></linearGradient><path fill="url(#b)" d="M32.808 24.347H19.815a.5.5 0 0 0-.5.5v26.151a.5.5 0 0 0 .5.5h12.992a.5.5 0 0 0 .5-.5V24.847a.499.499 0 0 0-.499-.5zm-.5 26.152H20.315V25.347h11.992v25.152z"/><linearGradient id="c" x1="8.043" x2="49.917" y1=".654" y2="48.401" gradientUnits="userSpaceOnUse"><stop offset="0" stop-color="#d810fb"/><stop offset="1" stop-color="#3953ed"/></linearGradient><path fill="url(#c)" d="M51 32.959H38.008a.5.5 0 0 0-.5.5v17.54a.5.5 0 0 0 .5.5H51a.5.5 0 0 0 .5-.5v-17.54a.5.5 0 0 0-.5-.5zm-.5 17.54H38.508v-16.54H50.5v16.54z"/><linearGradient id="d" x1="13.169" x2="55.039" y1="-3.841" y2="43.901" gradientUnits="userSpaceOnUse"><stop offset="0" stop-color="#d810fb"/><stop offset="1" stop-color="#3953ed"/></linearGradient><path fill="url(#d)" d="m32.471 6.766-2.789-.405a.15.15 0 0 1-.112-.082l-1.247-2.527a2.23 2.23 0 0 0-2.012-1.25c-.86 0-1.63.479-2.011 1.25L23.052 6.28a.148.148 0 0 1-.111.081l-2.789.405a2.23 2.23 0 0 0-1.811 1.526 2.232 2.232 0 0 0 .567 2.3l2.018 1.967a.149.149 0 0 1 .043.131l-.477 2.778a2.227 2.227 0 0 0 .893 2.194 2.226 2.226 0 0 0 2.362.17l2.494-1.311a.147.147 0 0 1 .138 0l2.495 1.312a2.232 2.232 0 0 0 2.362-.171 2.23 2.23 0 0 0 .892-2.194l-.476-2.778a.149.149 0 0 1 .043-.131l2.018-1.967a2.228 2.228 0 0 0 .567-2.299 2.222 2.222 0 0 0-1.809-1.527zm.545 3.11-2.018 1.967a1.147 1.147 0 0 0-.33 1.016l.476 2.778a1.22 1.22 0 0 1-.494 1.216 1.223 1.223 0 0 1-1.309.095l-2.495-1.312a1.158 1.158 0 0 0-1.069.001l-2.495 1.312c-.427.226-.917.19-1.309-.095a1.221 1.221 0 0 1-.495-1.216l.477-2.778a1.149 1.149 0 0 0-.33-1.016l-2.018-1.967a1.22 1.22 0 0 1-.315-1.275c.15-.46.525-.776 1.003-.846l2.789-.405c.375-.054.698-.29.865-.628l1.248-2.527a1.22 1.22 0 0 1 1.114-.693c.484 0 .901.259 1.115.693l1.247 2.528c.168.339.491.574.865.628l2.789.405c.479.07.854.386 1.003.846.15.458.033.935-.314 1.273z"/><linearGradient id="e" x1="-3.251" x2="38.623" y1="10.558" y2="58.306" gradientUnits="userSpaceOnUse"><stop offset="0" stop-color="#d810fb"/><stop offset="1" stop-color="#3953ed"/></linearGradient><path fill="url(#e)" d="m4.878 26.395-.405 2.363a1.972 1.972 0 0 0 .789 1.939 1.98 1.98 0 0 0 1.164.381c.315 0 .631-.076.924-.23l2.17-1.116 2.123 1.116a1.972 1.972 0 0 0 2.088-.151c.615-.447.917-1.19.789-1.939l-.39-2.409 1.717-1.674c.544-.53.736-1.309.501-2.032s-.848-1.24-1.601-1.35l-2.412-.373-1.061-2.15c-.336-.682-1.018-1.105-1.778-1.105s-1.441.424-1.778 1.105l-1.1 2.178-2.373.345c-.752.109-1.366.626-1.601 1.35s-.042 1.501.501 2.032l1.733 1.72zm-1.282-3.442a.964.964 0 0 1 .793-.669l2.374-.345c.342-.05.637-.265.791-.575l1.061-2.15c.169-.343.499-.548.881-.548s.712.205.881.548l1.061 2.151c.154.31.449.524.792.574l2.373.345a.964.964 0 0 1 .793.669.964.964 0 0 1-.249 1.007l-1.716 1.673a1.047 1.047 0 0 0-.303.931l.405 2.363a.966.966 0 0 1-.391.961.966.966 0 0 1-1.035.075l-2.122-1.116a1.053 1.053 0 0 0-.979 0l-2.122 1.116a.96.96 0 0 1-1.034-.075.965.965 0 0 1-.392-.961l.405-2.363a1.051 1.051 0 0 0-.302-.931L3.845 23.96a.964.964 0 0 1-.249-1.007z"/><linearGradient id="f" x1="17.693" x2="59.567" y1="-7.809" y2="39.939" gradientUnits="userSpaceOnUse"><stop offset="0" stop-color="#d810fb"/><stop offset="1" stop-color="#3953ed"/></linearGradient><path fill="url(#f)" d="m39.886 24.065-.405 2.363a1.972 1.972 0 0 0 .789 1.939 1.974 1.974 0 0 0 2.088.151l2.17-1.116 2.122 1.116a1.974 1.974 0 0 0 2.088-.151c.615-.447.917-1.19.789-1.939l-.391-2.409 1.717-1.673c.544-.531.737-1.31.502-2.033a1.97 1.97 0 0 0-1.601-1.349l-2.412-.373-1.061-2.15c-.336-.682-1.018-1.105-1.778-1.105s-1.441.424-1.778 1.105l-1.1 2.178-2.373.345a1.97 1.97 0 0 0-1.601 1.349 1.972 1.972 0 0 0 .501 2.033l1.734 1.719zm-1.282-3.443a.963.963 0 0 1 .793-.668l2.372-.345c.342-.049.639-.264.792-.575l1.061-2.15c.339-.686 1.424-.686 1.763 0l1.061 2.151c.154.31.45.524.792.574l2.373.345c.378.055.675.305.793.668s.025.741-.249 1.008l-1.717 1.674c-.248.242-.36.59-.301.93l.405 2.363a.965.965 0 0 1-.392.961.963.963 0 0 1-1.034.075l-2.123-1.116a1.056 1.056 0 0 0-.979 0l-2.122 1.116a.964.964 0 0 1-1.035-.075.963.963 0 0 1-.391-.961l.405-2.363a1.05 1.05 0 0 0-.302-.931l-1.717-1.673a.967.967 0 0 1-.248-1.008z"/></svg>