<svg xmlns="http://www.w3.org/2000/svg" viewBox="0 0 32 32"><defs><linearGradient id="a" x1="16.02" x2="16.02" y1="30.54" y2="1.43" gradientUnits="userSpaceOnUse"><stop offset="0" stop-color="#12c2e9"/><stop offset="1" stop-color="#c471ed"/></linearGradient></defs><path fill="url(#a)" d="M19.64 16A3.63 3.63 0 1 1 16 12.36 3.63 3.63 0 0 1 19.64 16Zm1.16 2.15a5.19 5.19 0 0 1-2.92 2.75 5.19 5.19 0 0 1-4-.11 5.26 5.26 0 0 1-2.64-6.93 5.24 5.24 0 0 1 9.57 4.29Zm-3.05-6a4.25 4.25 0 0 0-5.61 2.14 4.23 4.23 0 0 0-.09 3.24 4.28 4.28 0 0 0 2.23 2.37 4.23 4.23 0 0 0 3.24.09 4.24 4.24 0 0 0 .23-7.84Zm10.38 5.07 2.28 1.9-2.51 5.6-2.9-.48a11.16 11.16 0 0 1-1.23 1.15l.28 3-5.75 2.19-1.75-2.4a11.89 11.89 0 0 1-1.69 0l-1.9 2.28-5.6-2.51L7.8 25a11.2 11.2 0 0 1-1.2-1.3l-2.95.3-2.19-5.77 2.4-1.76a10.48 10.48 0 0 1 .05-1.68l-2.29-1.9 2.51-5.61 2.94.45A12.3 12.3 0 0 1 8.3 6.57L8 3.62l5.75-2.19 1.76 2.39a13.47 13.47 0 0 1 1.68.05l1.9-2.28 5.6 2.51-.42 2.9a12.3 12.3 0 0 1 1.16 1.23L28.38 8l2.19 5.75-2.39 1.75a13.47 13.47 0 0 1-.05 1.68Zm-1.06.42v-.27a10 10 0 0 0 .06-2V15l2.22-1.63-1.63-4.31-2.72.25-.17-.21a11 11 0 0 0-1.4-1.49l-.21-.18.41-2.73-4.23-1.89-1.77 2.12h-.27a10 10 0 0 0-2-.06H15l-1.59-2.24-4.32 1.65L9.35 7l-.22.17a11 11 0 0 0-1.49 1.4l-.18.21-2.73-.39-1.89 4.21L5 14.37v.27a11.65 11.65 0 0 0-.06 2.05v.27l-2.27 1.63 1.64 4.32 2.74-.26.17.22a11.64 11.64 0 0 0 1.4 1.49l.21.18-.41 2.73 4.22 1.89L14.4 27h.27a10 10 0 0 0 2 .06h.27l1.63 2.22 4.32-1.64-.2-2.64.21-.17a11.64 11.64 0 0 0 1.49-1.4l.18-.21 2.73.41 1.89-4.22Zm-.81.3 2 1.68-1.42 3.17-2.6-.39-.13.17a10.43 10.43 0 0 1-2.05 1.93l-.17.13.24 2.6-3.25 1.24-1.55-2.11h-.22a10.54 10.54 0 0 1-2.81-.09h-.21l-1.68 2-3.17-1.45.4-2.6-.17-.13A10.43 10.43 0 0 1 7.54 22l-.13-.17-2.6.24-1.24-3.22 2.11-1.54v-.22a9.8 9.8 0 0 1 .08-2.81v-.21l-2-1.68 1.42-3.18 2.6.39.13-.16A10.43 10.43 0 0 1 10 7.51l.17-.13-.24-2.6 3.26-1.24 1.54 2.11h.22a10.18 10.18 0 0 1 2.81.09h.21l1.68-2 3.18 1.42-.4 2.6.17.13a10.43 10.43 0 0 1 1.93 2.05l.13.17 2.6-.24 1.24 3.26-2.11 1.54v.22a10.19 10.19 0 0 1-.09 2.81Zm-1.08.4.13-.78a9.39 9.39 0 0 0 .07-2.56l-.08-.78 2-1.44-.7-1.84-2.42.23-.46-.64a9.27 9.27 0 0 0-1.74-1.85l-.62-.5.36-2.4L19.89 5l-1.56 1.82-.78-.13A9.38 9.38 0 0 0 15 6.62l-.78.08-1.44-2-1.78.74.23 2.42-.64.46a9.55 9.55 0 0 0-1.85 1.74l-.5.62-2.4-.36L5 12.11l1.87 1.56-.13.78A9.38 9.38 0 0 0 6.65 17l.08.78-2 1.44.74 1.78 2.42-.22.46.64a9.3 9.3 0 0 0 1.75 1.85l.61.5-.36 2.4 1.79.81 1.56-1.87.78.13a9.78 9.78 0 0 0 2.54.07l.78-.08 1.44 1.95 1.84-.69-.23-2.42.64-.46a9.27 9.27 0 0 0 1.85-1.74l.5-.62 2.4.36.81-1.79Z" data-name="Gear"/></svg>