<svg xmlns="http://www.w3.org/2000/svg" fill-rule="evenodd" stroke-linejoin="round" stroke-miterlimit="2" clip-rule="evenodd" viewBox="0 0 500 500"><path fill="url(#a)" d="M172.312 351.289 155.17 483.164a6.253 6.253 0 0 0 2.665 5.995 6.252 6.252 0 0 0 6.553.311L250 442.141l85.612 47.329a6.252 6.252 0 0 0 6.553-.311 6.253 6.253 0 0 0 2.665-5.995l-17.142-131.875 15.604.413a26.347 26.347 0 0 0 25.96-18.861l12.226-41.317 35.516-24.395a26.34 26.34 0 0 0 9.916-30.517L412.516 196l14.394-40.612a26.346 26.346 0 0 0-9.916-30.517l-35.516-24.395-12.226-41.317a26.343 26.343 0 0 0-25.96-18.861l-43.072 1.141-34.176-26.24a26.342 26.342 0 0 0-32.088 0l-34.176 26.24-43.072-1.141a26.347 26.347 0 0 0-25.96 18.861l-12.226 41.317-35.516 24.395a26.34 26.34 0 0 0-9.916 30.517L87.484 196 73.09 236.612a26.346 26.346 0 0 0 9.916 30.517l35.516 24.395 12.226 41.317a26.343 26.343 0 0 0 25.96 18.861l15.604-.413Zm12.649-.335L169.22 472.515l74.53-41.201v-49.816a26.346 26.346 0 0 1-9.794-4.697l-34.176-26.24-14.819.393Zm130.078 0-14.819-.393-34.176 26.24a26.346 26.346 0 0 1-9.794 4.697v49.816l74.53 41.201-15.741-121.561Zm-73.471-325.84a13.848 13.848 0 0 1 16.864 0l35.933 27.588a6.249 6.249 0 0 0 3.971 1.291l45.287-1.199a13.847 13.847 0 0 1 13.643 9.912l12.854 43.441a6.248 6.248 0 0 0 2.455 3.378l37.342 25.649a13.843 13.843 0 0 1 5.211 16.038l-15.134 42.7a6.247 6.247 0 0 0 0 4.176l15.134 42.7a13.845 13.845 0 0 1-5.211 16.038l-37.342 25.649a6.248 6.248 0 0 0-2.455 3.378l-12.854 43.441a13.846 13.846 0 0 1-13.643 9.912l-45.287-1.199a6.249 6.249 0 0 0-3.971 1.291l-35.933 27.588a13.848 13.848 0 0 1-16.864 0l-35.933-27.588a6.249 6.249 0 0 0-3.971-1.291l-45.287 1.199a13.847 13.847 0 0 1-13.643-9.912l-12.854-43.441a6.248 6.248 0 0 0-2.455-3.378l-37.342-25.649a13.843 13.843 0 0 1-5.211-16.038l15.134-42.7a6.247 6.247 0 0 0 0-4.176l-15.134-42.7a13.845 13.845 0 0 1 5.211-16.038l37.342-25.649a6.248 6.248 0 0 0 2.455-3.378l12.854-43.441a13.846 13.846 0 0 1 13.643-9.912l45.287 1.199a6.249 6.249 0 0 0 3.971-1.291l35.933-27.588ZM250 59.75c-75.198 0-136.25 61.052-136.25 136.25 0 75.198 61.052 136.25 136.25 136.25 75.198 0 136.25-61.052 136.25-136.25 0-75.198-61.052-136.25-136.25-136.25Zm0 12.5c68.299 0 123.75 55.451 123.75 123.75S318.299 319.75 250 319.75 126.25 264.299 126.25 196 181.701 72.25 250 72.25Zm0 34.5c-49.258 0-89.25 39.992-89.25 89.25s39.992 89.25 89.25 89.25 89.25-39.992 89.25-89.25-39.992-89.25-89.25-89.25Zm-39.526 155.039L250 239.487l39.526 22.302c-11.548 6.957-25.073 10.961-39.526 10.961-14.453 0-27.978-4.004-39.526-10.961Zm80.978-52.419 33.347-30.627A76.875 76.875 0 0 1 326.75 196c0 23.056-10.189 43.752-26.307 57.827l-8.991-44.457Zm-116.251-30.627 33.347 30.627-8.991 44.457C183.439 239.752 173.25 219.056 173.25 196c0-5.935.675-11.713 1.951-17.257ZM250 134.663l15.716 34.381a6.253 6.253 0 0 0 4.97 3.611l37.555 4.323-27.842 25.571a6.25 6.25 0 0 0-1.898 5.842l7.494 37.053-32.924-18.577a6.252 6.252 0 0 0-6.142 0l-32.924 18.577 7.494-37.053a6.25 6.25 0 0 0-1.898-5.842l-27.842-25.571 37.555-4.323a6.253 6.253 0 0 0 4.97-3.611L250 134.663Zm25.619 25.977-18.783-41.089c28.689 2.537 52.864 20.887 63.741 46.264l-44.958-5.175Zm-32.455-41.089-18.783 41.089-44.958 5.175c10.881-25.379 35.054-43.726 63.741-46.264Z"/><defs><linearGradient id="a" x1="0" x2="1" y1="0" y2="0" gradientTransform="matrix(500 -500 500 500 0 500)" gradientUnits="userSpaceOnUse"><stop offset="0" stop-color="#2cb4e2"/><stop offset="1" stop-color="#ab3ae3"/></linearGradient></defs></svg>