<svg xmlns="http://www.w3.org/2000/svg" enable-background="new 0 0 64 64" viewBox="0 0 64 64"><linearGradient id="a" x1=".301" x2="59.55" y1="63.699" y2="4.45" gradientUnits="userSpaceOnUse"><stop offset="0" stop-color="#be53ff"/><stop offset="1" stop-color="#6be2dd"/></linearGradient><path fill="url(#a)" d="M63.7,51.7l-20-20L63,12.3c1.2-1.2,1.2-3.2,0-4.4L56.1,1c-1.2-1.2-3.2-1.2-4.4,0L32.4,20.3l-20-20.1c-0.4-0.4-1-0.4-1.4,0L0.3,10.9c-0.4,0.4-0.4,1,0,1.4l20,20.1L4.2,48.5l0,0l0,0l0,0C4.1,48.6,4,48.8,4,48.9L0,62.7C-0.2,63.2,0.3,64,1,64s-0.9,0.3,14.1-3.9c0.2,0,0.3-0.1,0.5-0.3l16.1-16.1l20,20c0.4,0.4,1,0.4,1.4,0l10.6-10.6C64.1,52.7,64.1,52.1,63.7,51.7z M42.3,30.2l-3.5-3.5l15.1-15.1l3.5,3.5L42.3,30.2z M53.1,2.4c0.4-0.4,1.1-0.4,1.5,0l6.9,6.9c0.4,0.4,0.4,1.2,0,1.6l-2.8,2.8c-3-3-5.4-5.4-8.4-8.4L53.1,2.4z M49,6.6l3.5,3.5L37.3,25.3l-3.5-3.5L49,6.6z M14.8,57.7l-3.5-3.5l15.4-15.4l3.5,3.5L14.8,57.7z M9.9,52.7l-3.5-3.5l15.4-15.4l3.5,3.5L9.9,52.7z M2.4,61.6l3-10.4l3.7,3.7l0,0l0,0l3.7,3.7L2.4,61.6z M52.4,61.6L48.9,58l5.1-5.1c0.4-0.4,0.4-1,0-1.4s-1-0.4-1.4,0l-5.1,5.1l-3.8-3.8l2.7-2.7c0.4-0.4,0.4-1,0-1.4s-1-0.4-1.4,0l-2.7,2.7l-3.8-3.8l5.1-5.1c0.4-0.4,0.4-1,0-1.4s-1-0.4-1.4,0l-5.1,5.1l-3.8-3.8l2.7-2.7c0.4-0.4,0.4-1,0-1.4s-1-0.4-1.4,0L31.9,41l-3.8-3.8l5.1-5.1c0.4-0.4,0.4-1,0-1.4s-1-0.4-1.4,0l-5.1,5.1L22.9,32l2.7-2.7c0.4-0.4,0.4-1,0-1.4s-1-0.4-1.4,0l-2.7,2.7l-3.8-3.8l5.1-5.1c0.4-0.4,0.4-1,0-1.4s-1-0.4-1.4,0l-5.1,5.1l-3.8-3.8l2.7-2.7c0.4-0.4,0.4-1,0-1.4s-1-0.4-1.4,0l-2.7,2.7l-3.8-3.8l5.1-5.1c0.4-0.4,0.4-1,0-1.4s-1-0.4-1.4,0l-5,5.2l-3.5-3.5l9.2-9.2l50,50L52.4,61.6z"/></svg>