<svg xmlns="http://www.w3.org/2000/svg" xmlns:xlink="http://www.w3.org/1999/xlink" data-name="Layer 1" viewBox="0 0 64 64"><defs><linearGradient id="a" x1="8.108" x2="93.257" y1="32.319" y2="31.17" gradientUnits="userSpaceOnUse"><stop offset="0" stop-color="#96369f"/><stop offset="1" stop-color="#01b3ed"/></linearGradient><linearGradient id="b" x1="8.105" x2="93.253" y1="32.048" y2="30.899" xlink:href="#a"/><linearGradient id="c" x1="8.112" x2="93.261" y1="32.593" y2="31.444" xlink:href="#a"/><linearGradient id="d" x1="8.386" x2="93.535" y1="52.887" y2="51.738" xlink:href="#a"/></defs><path fill="url(#a)" d="M43.708,20.3a1,1,0,0,0-1.414,0l-22,22a1,1,0,0,0,0,1.414,1.025,1.025,0,0,0,1.414,0l22-22A1,1,0,0,0,43.708,20.3Z"/><path fill="url(#b)" d="M21.51,20.09a1,1,0,0,0-1.42,1.42l4.65,4.65a1,1,0,0,0,1.42,0h0a1,1,0,0,0,0-1.42ZM4.75,21.16a11.83,11.83,0,0,0,9.52,2.11l6.685,6.685a1,1,0,0,0,1.41,0h0a1,1,0,0,0,0-1.41L15.3,21.47a1.02,1.02,0,0,0-.983-.254A9.848,9.848,0,0,1,2.18,9.84l.03-.15,5.05,5.05a3.144,3.144,0,0,0,4.45,0s3.03-3.02,3.03-3.03a3.179,3.179,0,0,0,.01-4.44L9.8,2.31l-.1-.1.13-.03A9.819,9.819,0,0,1,21.2,14.288a1.026,1.026,0,0,0,.252.992l7.08,7.09a1,1,0,0,0,1.42,0h0a1,1,0,0,0,0-1.42L23.26,14.27A11.82,11.82,0,0,0,9.44.22,2.081,2.081,0,0,0,8.38,3.73l4.96,4.96a1.138,1.138,0,0,1-.01,1.61l-3.04,3.03a1.123,1.123,0,0,1-1.62-.01L3.73,8.38A2.077,2.077,0,0,0,.22,9.46,11.8,11.8,0,0,0,4.75,21.16Zm15.34-1.07a1.008,1.008,0,0,0,0,1.42l4.65,4.65a1,1,0,0,0,1.42,0h0a1,1,0,0,0,0-1.42l-4.65-4.65A1.008,1.008,0,0,0,20.09,20.09ZM5.92,44.75a9.712,9.712,0,0,1,8.25-1.65,1,1,0,0,0,.96-.26L37.12,20.85a1,1,0,0,0-1.42-1.42L14.11,41.03A11.77,11.77,0,0,0,.21,54.71a2.053,2.053,0,0,0,3.48,1.06l4.89-4.89a1.12,1.12,0,0,1,1.58-.02l2.98,2.98a1.138,1.138,0,0,1-.02,1.58l-4.9,4.9a2.076,2.076,0,0,0-.51,2.08,2.024,2.024,0,0,0,1.57,1.39,11.578,11.578,0,0,0,2.18.21,11.758,11.758,0,0,0,11.5-14.11l2.55-2.54a1,1,0,0,0-1.42-1.42l-2.94,2.94a1.022,1.022,0,0,0-.26.97,9.694,9.694,0,0,1-2.55,9.29,9.426,9.426,0,0,1-8.7,2.61l4.9-4.91a3.17,3.17,0,0,0,.02-4.41l-2.98-2.98a3.136,3.136,0,0,0-4.42.02L2.2,54.43l-.03-.1A9.713,9.713,0,0,1,5.92,44.75ZM21.51,20.09a1,1,0,0,0-1.42,1.42l4.65,4.65a1,1,0,0,0,1.42,0h0a1,1,0,0,0,0-1.42Z"/><path fill="url(#c)" d="M43.91,42.5l-4.652-4.661a1,1,0,0,0-1.416,0l0,0a1,1,0,0,0,0,1.412c1.984,1.983,4.656,4.647,4.665,4.656a1.024,1.024,0,0,0,1.41,0A1,1,0,0,0,43.91,42.5Zm0,0-4.652-4.661a1,1,0,0,0-1.416,0l0,0a1,1,0,0,0,0,1.412c1.984,1.983,4.656,4.647,4.665,4.656a1.024,1.024,0,0,0,1.41,0A1,1,0,0,0,43.91,42.5Zm16.62,1.44a11.831,11.831,0,0,0-10.79-3.19l-6.695-6.695a1,1,0,0,0-1.412,0h0a1,1,0,0,0,0,1.417l7.09,7.09a1.015,1.015,0,0,0,.97.26,9.706,9.706,0,1,1-6.9,6.879,1.025,1.025,0,0,0-.253-.989l-7.072-7.082a1,1,0,0,0-1.416,0l0,0a1,1,0,0,0,0,1.415L40.73,49.73a11.912,11.912,0,0,0,3.22,10.8,11.789,11.789,0,0,0,8.36,3.46,11.623,11.623,0,0,0,8.27-3.41A11.776,11.776,0,0,0,60.53,43.94ZM42.5,43.91a1.024,1.024,0,0,0,1.41,0,1,1,0,0,0,0-1.41l-4.652-4.661a1,1,0,0,0-1.416,0l0,0a1,1,0,0,0,0,1.412C39.819,41.237,42.491,43.9,42.5,43.91Zm7.39-20.95A11.756,11.756,0,0,0,63.8,9.29a2.051,2.051,0,0,0-1.4-1.58,2.075,2.075,0,0,0-2.07.51l-4.92,4.9a1.108,1.108,0,0,1-1.57.02s-2.98-2.97-2.98-2.98a1.129,1.129,0,0,1,.02-1.58l4.89-4.89a2.091,2.091,0,0,0,.52-2.07A2.034,2.034,0,0,0,54.71.21a11.77,11.77,0,0,0-13.68,13.9l-2.5,2.49a1,1,0,1,0,1.42,1.42l2.89-2.89a1,1,0,0,0,.26-.96,9.764,9.764,0,0,1,11.23-12l.11.03L49.46,7.16a3.136,3.136,0,0,0-.02,4.42l2.98,2.98a3.123,3.123,0,0,0,4.41-.02l5-4.88A9.753,9.753,0,0,1,49.84,20.89a1.015,1.015,0,0,0-.97.26L26.92,43.1a1.008,1.008,0,0,0,0,1.42,1.027,1.027,0,0,0,1.42,0Z"/><path fill="url(#d)" d="M58.44,53.43l-1.39-5.19a1.021,1.021,0,0,0-.7-.71l-5.19-1.38a1,1,0,0,0-.96.26L46.41,50.2a1,1,0,0,0-.26.96l1.38,5.19a1.021,1.021,0,0,0,.71.7s5.18,1.39,5.19,1.39a1.01,1.01,0,0,0,.96-.26l3.79-3.79A1,1,0,0,0,58.44,53.43Zm-5.05,2.93-4.07-1.09L48.23,51.2l2.97-2.97,4.07,1.09,1.09,4.06Z"/></svg>